<?xml version='1.0' encoding='utf-8'?>
<!DOCTYPE svg PUBLIC '-//W3C//DTD SVG 1.1//EN' 'http://www.w3.org/Graphics/SVG/1.1/DTD/svg11.dtd'>
<svg version="1.1" xmlns="http://www.w3.org/2000/svg" viewBox="0 0 512 512" xmlns:xlink="http://www.w3.org/1999/xlink" enable-background="new 0 0 512 512">
  <g>
    <g>
      <path d="m398.8,200.8v-17c4.2,1.2 8.8,3.5 13.7,7.1l9.5-13.9c-7.7-5.4-15.5-8.7-23.3-9.8v-6h-12.4v5.8c-7.1,0.9-12.8,3.5-17.2,7.8-4.4,4.4-6.5,9.9-6.5,16.6 0,6.7 1.9,11.9 5.7,15.4 3.8,3.6 9.8,6.4 18,8.5v17.7c-4.9-1.5-10.4-4.9-16.5-10.3l-10.8,13.3c8.3,7.5 17.5,12 27.3,13.6v8.6h12.4v-8.3c7.5-0.9 13.5-3.5 17.9-7.9 4.5-4.4 6.7-10 6.7-16.7 0-6.8-2-12-6-15.7-3.9-3.7-10.1-6.6-18.5-8.8zm-12.4-3.8c-3.3-1.7-5-4-5-7.2 0-3.1 1.7-5.3 5-6.5v13.7zm12.4,36.6v-14.5c2.3,0.9 3.8,2 4.7,3.1 0.9,1.1 1.3,2.5 1.3,4.1-0.1,3.6-2,6-6,7.3z"/>
      <path d="m391.2,99.9c-4,0-7.9,0.2-11.8,0.6v-46.8c0-23.5-19.2-42.7-42.7-42.7h-283c-23.5,0-42.7,19.2-42.7,42.7v404.6c0,23.5 19.2,42.7 42.7,42.7h283.1c23.5,0 42.7-19.2 42.7-42.7v-97.2-42.3c3.9,0.4 7.8,0.6 11.8,0.6 60.5,0 109.8-49.2 109.8-109.8-0.1-60.4-49.3-109.7-109.9-109.7zm-52.6,358.4h-286.8v-76.8h286.8v76.8zm0-117.7h-286.8v-286.9h286.8v59.7c-34,18.7-57.1,54.8-57.1,96.3 0,41.5 23.1,77.6 57.1,96.3v34.6zm52.6-62c-38,0-68.9-30.9-68.9-68.9 0-38 30.9-68.9 68.9-68.9 38,0 68.9,30.9 68.9,68.9 0.1,38-30.9,68.9-68.9,68.9z"/>
      <path d="m185.6,441.2h19.3c11.3,0 20.4-9.1 20.4-20.4 0-11.3-9.1-20.4-20.4-20.4h-19.3c-11.3,0-20.4,9.1-20.4,20.4 0,11.3 9.1,20.4 20.4,20.4z"/>
    </g>
  </g>
</svg>
